<svg width="20" height="16" viewBox="0 0 20 16" fill="none" xmlns="http://www.w3.org/2000/svg">
<path d="M9.0375 7.7125C9.22917 7.52083 9.325 7.28333 9.325 7C9.325 6.71667 9.22917 6.47917 9.0375 6.2875C8.84583 6.09583 8.60833 6 8.325 6C8.04167 6 7.80417 6.09583 7.6125 6.2875C7.42083 6.47917 7.325 6.71667 7.325 7C7.325 7.28333 7.42083 7.52083 7.6125 7.7125C7.80417 7.90417 8.04167 8 8.325 8C8.60833 8 8.84583 7.90417 9.0375 7.7125ZM5.7125 7.7125C5.90417 7.52083 6 7.28333 6 7C6 6.71667 5.90417 6.47917 5.7125 6.2875C5.52083 6.09583 5.28333 6 5 6C4.71667 6 4.47917 6.09583 4.2875 6.2875C4.09583 6.47917 4 6.71667 4 7C4 7.28333 4.09583 7.52083 4.2875 7.7125C4.47917 7.90417 4.71667 8 5 8C5.28333 8 5.52083 7.90417 5.7125 7.7125ZM11.675 8C11.9583 8 12.1958 7.90417 12.3875 7.7125C12.5792 7.52083 12.675 7.28333 12.675 7C12.675 6.71667 12.5792 6.47917 12.3875 6.2875C12.1958 6.09583 11.9583 6 11.675 6C11.3917 6 11.1542 6.09583 10.9625 6.2875C10.7708 6.47917 10.675 6.71667 10.675 7C10.675 7.28333 10.7708 7.52083 10.9625 7.7125C11.1542 7.90417 11.3917 8 11.675 8ZM15.7125 7.7125C15.9042 7.52083 16 7.28333 16 7C16 6.71667 15.9042 6.47917 15.7125 6.2875C15.5208 6.09583 15.2833 6 15 6C14.7167 6 14.4792 6.09583 14.2875 6.2875C14.0958 6.47917 14 6.71667 14 7C14 7.28333 14.0958 7.52083 14.2875 7.7125C14.4792 7.90417 14.7167 8 15 8C15.2833 8 15.5208 7.90417 15.7125 7.7125ZM2 12H18V2H2V12ZM10 16C8.35 16 6.9375 15.8875 5.7625 15.6625C4.5875 15.4375 4 15.1667 4 14.85V14H2C1.45 14 0.979167 13.8042 0.5875 13.4125C0.195833 13.0208 0 12.55 0 12V2C0 1.45 0.195833 0.979167 0.5875 0.5875C0.979167 0.195833 1.45 0 2 0H18C18.55 0 19.0208 0.195833 19.4125 0.5875C19.8042 0.979167 20 1.45 20 2V12C20 12.55 19.8042 13.0208 19.4125 13.4125C19.0208 13.8042 18.55 14 18 14H16V14.85C16 15.1667 15.4125 15.4375 14.2375 15.6625C13.0625 15.8875 11.65 16 10 16Z" fill="#1B2D4F"/>
</svg>
