<svg width="21" height="18" viewBox="0 0 21 18" fill="none" xmlns="http://www.w3.org/2000/svg">
<path d="M10.025 18L6.825 15.15C5.625 14.0667 4.59583 13.1 3.7375 12.25C2.87917 11.4 2.17083 10.6 1.6125 9.85C1.05417 9.1 0.645833 8.375 0.3875 7.675C0.129167 6.975 0 6.24167 0 5.475C0 3.90833 0.525 2.60417 1.575 1.5625C2.625 0.520833 3.93333 0 5.5 0C6.36667 0 7.19167 0.183333 7.975 0.55C8.75833 0.916667 9.44167 1.43333 10.025 2.1C10.6083 1.43333 11.2917 0.916667 12.075 0.55C12.8583 0.183333 13.6833 0 14.55 0C16.1167 0 17.425 0.520833 18.475 1.5625C19.525 2.60417 20.05 3.90833 20.05 5.475C20.05 6.24167 19.9208 6.975 19.6625 7.675C19.4042 8.375 18.9958 9.1 18.4375 9.85C17.8792 10.6 17.1708 11.4 16.3125 12.25C15.4542 13.1 14.425 14.0667 13.225 15.15L10.025 18ZM4.85 10.5H15.2C15.4667 10.2167 15.7083 9.95417 15.925 9.7125C16.1417 9.47083 16.3417 9.23333 16.525 9H3.525C3.70833 9.23333 3.90833 9.47083 4.125 9.7125C4.34167 9.95417 4.58333 10.2167 4.85 10.5ZM10.025 15.3C10.625 14.7667 11.1875 14.2708 11.7125 13.8125C12.2375 13.3542 12.7167 12.9167 13.15 12.5H6.9C7.33333 12.9167 7.8125 13.3542 8.3375 13.8125C8.8625 14.2708 9.425 14.7667 10.025 15.3Z" fill="#1B2D4F"/>
</svg>
