<svg width="16" height="21" viewBox="0 0 16 21" fill="none" xmlns="http://www.w3.org/2000/svg">
<path d="M2 17C1.31667 16.15 0.8125 15.1667 0.4875 14.05C0.1625 12.9333 0 11.6417 0 10.175C0 8.94167 0.541667 7.69583 1.625 6.4375C2.70833 5.17917 4.24167 4 6.225 2.9C6.14167 2.76667 6.08333 2.62083 6.05 2.4625C6.01667 2.30417 6 2.15 6 2C6 1.45 6.19583 0.979167 6.5875 0.5875C6.97917 0.195833 7.45 0 8 0C8.55 0 9.02083 0.195833 9.4125 0.5875C9.80417 0.979167 10 1.45 10 2C10 2.13333 9.98333 2.27083 9.95 2.4125C9.91667 2.55417 9.86667 2.69167 9.8 2.825C11.8833 3.925 13.4375 5.0875 14.4625 6.3125C15.4875 7.5375 16 8.825 16 10.175C16 11.7917 15.8458 13.1333 15.5375 14.2C15.2292 15.2667 14.7167 16.2 14 17H2ZM3.025 15H13.025C13.3583 14.4167 13.6042 13.7375 13.7625 12.9625C13.9208 12.1875 14 11.2583 14 10.175C14 9.675 13.8708 9.16667 13.6125 8.65C13.3542 8.13333 12.975 7.62083 12.475 7.1125C11.975 6.60417 11.3542 6.10417 10.6125 5.6125C9.87083 5.12083 9.01667 4.64167 8.05 4.175C7.11667 4.625 6.27917 5.10417 5.5375 5.6125C4.79583 6.12083 4.1625 6.63333 3.6375 7.15C3.1125 7.66667 2.70833 8.18333 2.425 8.7C2.14167 9.21667 2 9.70833 2 10.175C2 11.175 2.08333 12.0708 2.25 12.8625C2.41667 13.6542 2.675 14.3667 3.025 15ZM1.5 21C1.08333 21 0.729167 20.8542 0.4375 20.5625C0.145833 20.2708 0 19.9167 0 19.5C0 19.0833 0.145833 18.7292 0.4375 18.4375C0.729167 18.1458 1.08333 18 1.5 18H14.5C14.9167 18 15.2708 18.1458 15.5625 18.4375C15.8542 18.7292 16 19.0833 16 19.5C16 19.9167 15.8542 20.2708 15.5625 20.5625C15.2708 20.8542 14.9167 21 14.5 21H1.5ZM7 13H9V11H11V9H9V7H7V9H5V11H7V13Z" fill="#1B2D4F"/>
</svg>
