<svg width="13" height="13" viewBox="0 0 13 13" fill="none" xmlns="http://www.w3.org/2000/svg">
<path d="M6.5 7.57962L1.30246 12.7774C1.16056 12.9191 0.982202 12.9917 0.767388 12.9951C0.552745 12.9984 0.371143 12.9258 0.222583 12.7774C0.0741945 12.6289 0 12.4489 0 12.2375C0 12.0261 0.0741945 11.8461 0.222583 11.6975L5.42038 6.5L0.222583 1.30246C0.0808541 1.16056 0.00828184 0.982202 0.00486667 0.767388C0.00162227 0.552745 0.0741945 0.371143 0.222583 0.222583C0.371143 0.0741945 0.551122 0 0.762521 0C0.97392 0 1.1539 0.0741945 1.30246 0.222583L6.5 5.42038L11.6975 0.222583C11.8394 0.0808541 12.0178 0.00828184 12.2326 0.00486667C12.4473 0.00162227 12.6289 0.0741945 12.7774 0.222583C12.9258 0.371143 13 0.551123 13 0.762521C13 0.97392 12.9258 1.1539 12.7774 1.30246L7.57962 6.5L12.7774 11.6975C12.9191 11.8394 12.9917 12.0178 12.9951 12.2326C12.9984 12.4473 12.9258 12.6289 12.7774 12.7774C12.6289 12.9258 12.4489 13 12.2375 13C12.0261 13 11.8461 12.9258 11.6975 12.7774L6.5 7.57962Z" fill="#1C1B1F"/>
</svg>
