<svg width="20" height="20" viewBox="0 0 20 20" fill="none" xmlns="http://www.w3.org/2000/svg">
<path d="M6.5 13C7.2 13 7.79167 12.7583 8.275 12.275L12.275 8.275C12.7583 7.79167 13 7.2 13 6.5C13 5.8 12.7583 5.20833 12.275 4.725C11.7917 4.24167 11.2 4 10.5 4C9.8 4 9.20833 4.24167 8.725 4.725C8.10833 4.50833 7.5 4.45833 6.9 4.575C6.3 4.69167 5.79167 4.95833 5.375 5.375C4.95833 5.79167 4.69167 6.3 4.575 6.9C4.45833 7.5 4.50833 8.10833 4.725 8.725C4.24167 9.20833 4 9.8 4 10.5C4 11.2 4.24167 11.7917 4.725 12.275C5.20833 12.7583 5.8 13 6.5 13ZM3 20V15.7C2.05 14.8333 1.3125 13.8208 0.7875 12.6625C0.2625 11.5042 0 10.2833 0 9C0 6.5 0.875 4.375 2.625 2.625C4.375 0.875 6.5 0 9 0C11.0833 0 12.9292 0.6125 14.5375 1.8375C16.1458 3.0625 17.1917 4.65833 17.675 6.625L18.975 11.75C19.0583 12.0667 19 12.3542 18.8 12.6125C18.6 12.8708 18.3333 13 18 13H16V16C16 16.55 15.8042 17.0208 15.4125 17.4125C15.0208 17.8042 14.55 18 14 18H12V20H10V16H14V11H16.7L15.75 7.125C15.3667 5.60833 14.55 4.375 13.3 3.425C12.05 2.475 10.6167 2 9 2C7.06667 2 5.41667 2.675 4.05 4.025C2.68333 5.375 2 7.01667 2 8.95C2 9.95 2.20417 10.9 2.6125 11.8C3.02083 12.7 3.6 13.5 4.35 14.2L5 14.8V20H3Z" fill="#1C1B1F"/>
</svg>
