<svg width="22" height="22" viewBox="0 0 22 22" fill="none" xmlns="http://www.w3.org/2000/svg">
<path d="M4 21.425C5.03333 21.425 5.87917 21.1667 6.5375 20.65C7.19583 20.1333 7.7 19.375 8.05 18.375C8.33333 17.5417 8.60417 16.9583 8.8625 16.625C9.12083 16.2917 9.71667 15.7583 10.65 15.025C11.6833 14.1917 12.5 13.25 13.1 12.2C13.7 11.15 14 9.89167 14 8.425C14 6.44167 13.3292 4.77917 11.9875 3.4375C10.6458 2.09583 8.98333 1.425 7 1.425C5.01667 1.425 3.35417 2.09583 2.0125 3.4375C0.670833 4.77917 0 6.44167 0 8.425H2C2 7.00833 2.47917 5.82083 3.4375 4.8625C4.39583 3.90417 5.58333 3.425 7 3.425C8.41667 3.425 9.60417 3.90417 10.5625 4.8625C11.5208 5.82083 12 7.00833 12 8.425C12 9.55833 11.775 10.525 11.325 11.325C10.875 12.125 10.2333 12.8417 9.4 13.475C8.53333 14.1083 7.85833 14.725 7.375 15.325C6.89167 15.925 6.53333 16.575 6.3 17.275C6.06667 18.0083 5.7875 18.55 5.4625 18.9C5.1375 19.25 4.65 19.425 4 19.425C3.45 19.425 2.97917 19.2292 2.5875 18.8375C2.19583 18.4458 2 17.975 2 17.425H0C0 18.525 0.391667 19.4667 1.175 20.25C1.95833 21.0333 2.9 21.425 4 21.425ZM8.775 10.1875C9.25833 9.69583 9.5 9.10833 9.5 8.425C9.5 7.725 9.25833 7.13333 8.775 6.65C8.29167 6.16667 7.7 5.925 7 5.925C6.3 5.925 5.70833 6.16667 5.225 6.65C4.74167 7.13333 4.5 7.725 4.5 8.425C4.5 9.10833 4.74167 9.69583 5.225 10.1875C5.70833 10.6792 6.3 10.925 7 10.925C7.7 10.925 8.29167 10.6792 8.775 10.1875ZM16.5 13.95L15.025 12.475C15.3417 11.8583 15.5833 11.2125 15.75 10.5375C15.9167 9.8625 16 9.15833 16 8.425C16 7.69167 15.9167 6.99167 15.75 6.325C15.5833 5.65833 15.3417 5.01667 15.025 4.4L16.5 2.925C16.9833 3.74167 17.3542 4.6125 17.6125 5.5375C17.8708 6.4625 18 7.425 18 8.425C18 9.44167 17.8708 10.4125 17.6125 11.3375C17.3542 12.2625 16.9833 13.1333 16.5 13.95ZM19.425 16.85L17.95 15.4C18.6 14.4 19.1042 13.3167 19.4625 12.15C19.8208 10.9833 20 9.75833 20 8.475C20 7.175 19.8167 5.9375 19.45 4.7625C19.0833 3.5875 18.575 2.5 17.925 1.5L19.425 0C20.2417 1.2 20.875 2.5125 21.325 3.9375C21.775 5.3625 22 6.85833 22 8.425C22 9.99167 21.775 11.4875 21.325 12.9125C20.875 14.3375 20.2417 15.65 19.425 16.85Z" fill="#1C1B1F"/>
</svg>
