<svg width="18" height="21" viewBox="0 0 18 21" fill="none" xmlns="http://www.w3.org/2000/svg">
<path d="M3.8 12L9 15L14.2 12L10 9.575V13H8V9.575L3.8 12ZM8 7.275V6.85C7.26667 6.63333 6.66667 6.22083 6.2 5.6125C5.73333 5.00417 5.5 4.3 5.5 3.5C5.5 2.53333 5.84167 1.70833 6.525 1.025C7.20833 0.341667 8.03333 0 9 0C9.96667 0 10.7917 0.341667 11.475 1.025C12.1583 1.70833 12.5 2.53333 12.5 3.5C12.5 4.3 12.2667 5.00417 11.8 5.6125C11.3333 6.22083 10.7333 6.63333 10 6.85V7.275L17 11.3C17.3167 11.4833 17.5625 11.7292 17.7375 12.0375C17.9125 12.3458 18 12.6833 18 13.05V14.95C18 15.3167 17.9125 15.6542 17.7375 15.9625C17.5625 16.2708 17.3167 16.5167 17 16.7L10 20.725C9.68333 20.9083 9.35 21 9 21C8.65 21 8.31667 20.9083 8 20.725L1 16.7C0.683333 16.5167 0.4375 16.2708 0.2625 15.9625C0.0875 15.6542 0 15.3167 0 14.95V13.05C0 12.6833 0.0875 12.3458 0.2625 12.0375C0.4375 11.7292 0.683333 11.4833 1 11.3L8 7.275ZM8 16.725L2 13.275V14.95L9 19L16 14.95V13.275L10 16.725C9.68333 16.9083 9.35 17 9 17C8.65 17 8.31667 16.9083 8 16.725ZM10.0625 4.5625C10.3542 4.27083 10.5 3.91667 10.5 3.5C10.5 3.08333 10.3542 2.72917 10.0625 2.4375C9.77083 2.14583 9.41667 2 9 2C8.58333 2 8.22917 2.14583 7.9375 2.4375C7.64583 2.72917 7.5 3.08333 7.5 3.5C7.5 3.91667 7.64583 4.27083 7.9375 4.5625C8.22917 4.85417 8.58333 5 9 5C9.41667 5 9.77083 4.85417 10.0625 4.5625Z" fill="#1C1B1F"/>
</svg>
