<svg width="18" height="18" viewBox="0 0 18 18" fill="none" xmlns="http://www.w3.org/2000/svg">
<path d="M1.175 16.825C0.391667 16.0417 0 15.1 0 14C0 12.9 0.391667 11.9583 1.175 11.175C1.95833 10.3917 2.9 10 4 10C4.38333 10 4.7375 10.0458 5.0625 10.1375C5.3875 10.2292 5.7 10.3667 6 10.55V2L18 0V12C18 13.1 17.6083 14.0417 16.825 14.825C16.0417 15.6083 15.1 16 14 16C12.9 16 11.9583 15.6083 11.175 14.825C10.3917 14.0417 10 13.1 10 12C10 10.9 10.3917 9.95833 11.175 9.175C11.9583 8.39167 12.9 8 14 8C14.3833 8 14.7375 8.04583 15.0625 8.1375C15.3875 8.22917 15.7 8.36667 16 8.55V4.425L8 6V14C8 15.1 7.60833 16.0417 6.825 16.825C6.04167 17.6083 5.1 18 4 18C2.9 18 1.95833 17.6083 1.175 16.825Z" fill="#1C1B1F"/>
</svg>
