<svg width="18" height="21" viewBox="0 0 18 21" fill="none" xmlns="http://www.w3.org/2000/svg">
<path d="M7 21L6.5 12L3.325 10.175L2.975 11.475L5 15L3.275 16L0.8 11.75L2 7.45L7.75 4.15L5 1.4L6.4 0L11 4.575L7.4 6.65L8.6 7.7L16.8 1L18 2.4L9.5 11L9 21H7ZM2 6C1.45 6 0.979167 5.80417 0.5875 5.4125C0.195833 5.02083 0 4.55 0 4C0 3.45 0.195833 2.97917 0.5875 2.5875C0.979167 2.19583 1.45 2 2 2C2.55 2 3.02083 2.19583 3.4125 2.5875C3.80417 2.97917 4 3.45 4 4C4 4.55 3.80417 5.02083 3.4125 5.4125C3.02083 5.80417 2.55 6 2 6Z" fill="#1C1B1F"/>
</svg>
