<svg width="21" height="20" viewBox="0 0 21 20" fill="none" xmlns="http://www.w3.org/2000/svg">
<path d="M2.09601 17.6414L1.2052 17.2746C0.663736 17.0475 0.301301 16.6545 0.1179 16.0956C-0.0655003 15.5367 -0.0349335 14.9865 0.209601 14.445L2.09601 10.3578V17.6414ZM6.28803 19.947C5.71162 19.947 5.21819 19.7418 4.80772 19.3313C4.39725 18.9208 4.19202 18.4274 4.19202 17.851V11.563L6.96923 19.2658C7.02163 19.3881 7.07403 19.506 7.12643 19.6195C7.17883 19.733 7.2487 19.8422 7.33603 19.947H6.28803ZM11.6852 19.8422C11.1263 20.0518 10.5848 20.0256 10.0608 19.7636C9.53684 19.5016 9.17004 19.0911 8.96044 18.5322L4.29682 5.74656C4.08722 5.18762 4.10468 4.64179 4.34922 4.10905C4.59375 3.57631 4.99549 3.21388 5.55442 3.02175L13.4669 0.139734C14.0258 -0.0698669 14.5673 -0.0436669 15.0913 0.218334C15.6153 0.480335 15.9821 0.890804 16.1917 1.44974L20.8553 14.2354C21.0649 14.7943 21.0474 15.3402 20.8029 15.8729C20.5584 16.4056 20.1566 16.7681 19.5977 16.9602L11.6852 19.8422ZM10.1787 7.06966C10.3796 6.8688 10.48 6.61989 10.48 6.32296C10.48 6.02602 10.3796 5.77712 10.1787 5.57626C9.97787 5.37539 9.72897 5.27495 9.43204 5.27495C9.1351 5.27495 8.8862 5.37539 8.68534 5.57626C8.48447 5.77712 8.38403 6.02602 8.38403 6.32296C8.38403 6.61989 8.48447 6.8688 8.68534 7.06966C8.8862 7.27053 9.1351 7.37096 9.43204 7.37096C9.72897 7.37096 9.97787 7.27053 10.1787 7.06966ZM10.9516 17.851L18.8641 14.969L14.2005 2.13094L6.28803 5.01295L10.9516 17.851Z" fill="#1C1B1F"/>
</svg>
