<svg width="21" height="20" viewBox="0 0 21 20" fill="none" xmlns="http://www.w3.org/2000/svg">
<path d="M2.09596 17.641L1.20518 17.2742C0.66372 17.0471 0.301294 16.6541 0.117898 16.0952C-0.0654987 15.5363 -0.0349326 14.9861 0.209596 14.4446L2.09596 10.3575V17.641ZM6.28787 19.9465C5.71148 19.9465 5.21806 19.7413 4.8076 19.3308C4.39714 18.9204 4.19192 18.427 4.19192 17.8506V11.5627L6.96906 19.2653C7.02146 19.3876 7.07386 19.5055 7.12626 19.619C7.17865 19.7326 7.24852 19.8417 7.33585 19.9465H6.28787ZM11.685 19.8417C11.126 20.0513 10.5846 20.0251 10.0606 19.7631C9.53661 19.5011 9.16981 19.0907 8.96022 18.5318L4.29671 5.74642C4.08712 5.18749 4.10458 4.64167 4.34911 4.10895C4.59364 3.57623 4.99537 3.2138 5.55429 3.02167L13.4665 0.139731C14.0254 -0.0698652 14.5669 -0.0436658 15.0909 0.218329C15.6149 0.480324 15.9817 0.890782 16.1913 1.4497L20.8548 14.235C21.0644 14.794 21.0469 15.3398 20.8024 15.8725C20.5578 16.4052 20.1561 16.7677 19.5972 16.9598L11.685 19.8417ZM10.1785 7.06949C10.3794 6.86863 10.4798 6.61973 10.4798 6.32281C10.4798 6.02588 10.3794 5.77698 10.1785 5.57612C9.97763 5.37526 9.72874 5.27483 9.43181 5.27483C9.13488 5.27483 8.88599 5.37526 8.68512 5.57612C8.48426 5.77698 8.38383 6.02588 8.38383 6.32281C8.38383 6.61973 8.48426 6.86863 8.68512 7.06949C8.88599 7.27035 9.13488 7.37078 9.43181 7.37078C9.72874 7.37078 9.97763 7.27035 10.1785 7.06949ZM10.9514 17.8506L18.8636 14.9686L14.2001 2.13089L6.28787 5.01283L10.9514 17.8506Z" fill="#1C1B1F"/>
</svg>
