<svg width="19" height="19" viewBox="0 0 19 19" fill="none" xmlns="http://www.w3.org/2000/svg">
<path d="M2 14V2H0V0H4V12H19V14H2ZM4 19C3.45 19 2.97917 18.8042 2.5875 18.4125C2.19583 18.0208 2 17.55 2 17C2 16.45 2.19583 15.9792 2.5875 15.5875C2.97917 15.1958 3.45 15 4 15C4.55 15 5.02083 15.1958 5.4125 15.5875C5.80417 15.9792 6 16.45 6 17C6 17.55 5.80417 18.0208 5.4125 18.4125C5.02083 18.8042 4.55 19 4 19ZM5 11V5H11V11H5ZM7 9H9V7H7V9ZM12 11V5H18V11H12ZM14 9H16V7H14V9ZM15.5875 18.4125C15.1958 18.0208 15 17.55 15 17C15 16.45 15.1958 15.9792 15.5875 15.5875C15.9792 15.1958 16.45 15 17 15C17.55 15 18.0208 15.1958 18.4125 15.5875C18.8042 15.9792 19 16.45 19 17C19 17.55 18.8042 18.0208 18.4125 18.4125C18.0208 18.8042 17.55 19 17 19C16.45 19 15.9792 18.8042 15.5875 18.4125Z" fill="#1B2D4F"/>
</svg>
